<?xml version="1.0" encoding="utf-8"?>
<svg width="1200px" height="403.24365px" viewBox="0 0 1200 403.24365" version="1.1" xmlns:xlink="http://www.w3.org/1999/xlink" xmlns="http://www.w3.org/2000/svg">
  <defs>
    <filter id="filter_1">
      <feColorMatrix in="SourceGraphic" type="matrix" values="0 0 0 0 1 0 0 0 0 1 0 0 0 0 1 0 0 0 1 0" color-interpolation-filters="sRGB" />
    </filter>
  </defs>
  <g id="Logo-Copy" filter="url(#filter_1)">
    <path d="M818.333 190.833C818.333 138.137 836.965 93.1569 874.227 55.8938C911.49 18.6313 956.47 0 1009.17 0C1061.86 0 1106.84 18.6313 1144.11 55.8938C1181.37 93.1569 1200 138.137 1200 190.833C1200 243.531 1181.37 288.511 1144.11 325.773C1106.85 363.034 1061.87 381.665 1009.17 381.667C956.47 381.668 911.49 363.037 874.227 325.773C836.965 288.51 818.333 243.53 818.333 190.833L818.333 190.833ZM825.49 190.834C825.49 241.555 843.422 284.848 879.287 320.713C915.154 356.578 958.447 374.511 1009.17 374.511C1059.89 374.511 1103.18 356.578 1139.05 320.713C1174.91 284.846 1192.84 241.553 1192.84 190.834C1192.84 140.113 1174.91 96.8195 1139.05 60.9545C1103.18 25.0893 1059.89 7.15674 1009.17 7.15674C958.445 7.15674 915.152 25.0893 879.287 60.9545C843.422 96.8195 825.49 140.113 825.49 190.834L825.49 190.834Z" id="Vector" fill="#000000" fill-rule="evenodd" stroke="none" />
    <path d="M1011.55 188.449L132.526 188.449L132.526 195.605L1011.55 195.605L1011.55 188.449L1011.55 188.449Z" id="Vector" fill="#000000" fill-rule="evenodd" stroke="none" />
    <path d="M798.057 265.961L794.612 286.762L775.761 286.762L767.701 335.122C767.051 338.935 767.496 341.514 769.034 342.857C770.572 344.201 772.728 344.872 775.501 344.872C776.801 344.872 778.123 344.753 779.466 344.515C780.81 344.276 781.828 344.092 782.522 343.962L783.562 364.567C782.002 365.044 779.922 365.575 777.321 366.16C774.721 366.745 771.623 367.081 768.026 367.167C757.843 367.557 750.108 365.358 744.821 360.57C739.534 355.781 737.758 348.512 739.491 338.762L748.071 286.762L734.421 286.762L737.931 265.961L751.516 265.961L755.481 242.041L783.172 242.041L779.206 265.961L798.057 265.961ZM663.852 365.804L680.492 265.963L707.338 265.963L704.413 283.383L705.453 283.383C708.313 277.187 712.159 272.496 716.99 269.311C721.822 266.126 727.033 264.533 732.623 264.533C735.786 264.533 738.625 264.837 741.138 265.443L736.978 290.078C735.765 289.645 734.042 289.288 731.811 289.006C729.579 288.724 727.466 288.583 725.473 288.583C719.45 288.583 714.12 290.501 709.483 294.336C704.846 298.171 701.964 303.165 700.838 309.319L691.543 365.804L663.852 365.804ZM607.258 367.753C597.075 367.753 588.646 365.576 581.973 361.221C575.299 356.866 570.609 350.788 567.9 342.988C565.192 335.188 564.683 326.131 566.373 315.818C568.019 305.591 571.443 296.642 576.643 288.972C581.843 281.302 588.451 275.333 596.468 271.065C604.485 266.796 613.52 264.662 623.573 264.662C633.714 264.662 642.12 266.84 648.794 271.195C655.467 275.55 660.169 281.627 662.899 289.427C665.629 297.227 666.149 306.306 664.459 316.663C662.769 326.846 659.313 335.773 654.091 343.443C648.869 351.113 642.261 357.082 634.266 361.351C626.271 365.619 617.268 367.753 607.258 367.753L607.258 367.753ZM609.988 346.304C616.965 346.304 622.761 343.401 627.376 337.594C631.991 331.787 635.035 324.486 636.508 315.689C637.895 307.065 637.332 299.926 634.818 294.271C632.305 288.616 627.625 285.789 620.778 285.789C613.758 285.789 607.94 288.714 603.325 294.564C598.71 300.414 595.688 307.737 594.258 316.534C592.871 325.114 593.435 332.221 595.948 337.854C598.461 343.488 603.141 346.304 609.988 346.304L609.988 346.304ZM450.433 403.244L473.444 265.962L500.744 265.962L497.949 282.732L499.184 282.732C500.831 280.002 503.03 277.251 505.781 274.477C508.533 271.704 511.956 269.375 516.052 267.49C520.147 265.605 524.989 264.662 530.579 264.662C537.903 264.662 544.305 266.558 549.787 270.35C555.269 274.141 559.223 279.84 561.65 287.445C564.076 295.05 564.336 304.573 562.43 316.013C560.609 327.15 557.262 336.542 552.387 344.191C547.512 351.839 541.683 357.624 534.902 361.546C528.12 365.467 520.937 367.428 513.354 367.428C507.981 367.428 503.571 366.54 500.126 364.763C496.681 362.987 494.005 360.744 492.099 358.036C490.192 355.327 488.849 352.586 488.069 349.813L487.029 349.813L478.189 403.244L450.433 403.244ZM492.229 315.883C490.755 324.767 491.405 331.906 494.179 337.301C496.952 342.696 501.676 345.393 508.349 345.393C515.109 345.393 520.721 342.653 525.184 337.171C529.648 331.689 532.638 324.593 534.154 315.883C535.541 307.216 534.902 300.185 532.237 294.79C529.572 289.395 524.816 286.698 517.969 286.698C511.252 286.698 505.63 289.33 501.101 294.595C496.573 299.86 493.615 306.956 492.229 315.883L492.229 315.883ZM300.238 365.803L316.878 265.962L343.203 265.962L340.343 283.577L341.448 283.577C344.525 277.684 348.771 273.058 354.188 269.7C359.605 266.341 365.715 264.662 372.518 264.662C379.278 264.662 384.782 266.363 389.029 269.765C393.275 273.166 395.745 277.771 396.439 283.577L397.479 283.577C400.425 277.814 404.867 273.221 410.804 269.797C416.741 266.374 423.371 264.662 430.694 264.662C439.924 264.662 446.988 267.62 451.884 273.535C456.781 279.45 458.319 287.824 456.499 298.658L445.319 365.803L417.629 365.803L428.029 304.118C428.896 298.571 428.083 294.411 425.591 291.637C423.1 288.864 419.644 287.477 415.224 287.477C410.197 287.477 406.015 289.07 402.679 292.255C399.342 295.44 397.284 299.633 396.504 304.833L386.168 365.803L359.323 365.803L369.853 303.533C370.59 298.636 369.799 294.736 367.481 291.832C365.162 288.929 361.707 287.477 357.113 287.477C352.52 287.477 348.392 289.157 344.731 292.515C341.069 295.873 338.826 300.326 338.003 305.873L327.863 365.803L300.238 365.803ZM232.529 367.688C223.039 367.688 215.564 365.186 210.104 360.181C204.644 355.176 202.715 347.755 204.319 337.918C205.575 330.508 208.305 324.679 212.509 320.433C216.712 316.186 221.836 313.066 227.881 311.073C233.926 309.079 240.286 307.779 246.959 307.173C255.713 306.306 262.05 305.385 265.972 304.41C269.893 303.435 272.136 301.366 272.699 298.203L272.699 297.813C273.349 293.696 272.602 290.511 270.457 288.257C268.312 286.004 264.899 284.877 260.219 284.877C255.279 284.877 251.097 285.961 247.674 288.127C244.251 290.294 241.781 293.046 240.264 296.382L215.044 294.302C218.424 285.202 224.35 277.987 232.821 272.657C241.293 267.327 251.531 264.662 263.534 264.662C270.901 264.662 277.607 265.832 283.652 268.172C289.697 270.512 294.301 274.163 297.465 279.125C300.628 284.087 301.56 290.532 300.26 298.462L289.015 365.803L262.754 365.803L265.094 351.958L264.314 351.958C261.151 356.595 256.904 360.376 251.574 363.301C246.244 366.226 239.896 367.688 232.529 367.688L232.529 367.688ZM243.644 348.579C249.711 348.579 254.976 346.813 259.439 343.281C263.903 339.75 266.589 335.362 267.5 330.119L269.19 319.523C268.02 320.26 266.243 320.899 263.859 321.441C261.476 321.983 258.974 322.459 256.352 322.871C253.73 323.283 251.401 323.662 249.364 324.008C244.381 324.702 240.21 326.067 236.852 328.104C233.493 330.14 231.511 333.109 230.904 337.009C230.341 340.779 231.24 343.65 233.602 345.621C235.963 347.593 239.311 348.579 243.644 348.579L243.644 348.579ZM150.52 367.753C135.136 367.753 123.804 363.138 116.524 353.908C109.244 344.678 106.926 332.155 109.569 316.338C111.302 306.068 114.802 297.054 120.067 289.297C125.332 281.541 131.951 275.496 139.924 271.162C147.898 266.829 156.781 264.662 166.575 264.662C175.415 264.662 183.063 266.525 189.52 270.252C195.977 273.979 200.657 279.601 203.56 287.12C206.464 294.638 206.962 304.053 205.055 315.363L203.82 322.968L135.829 322.968L135.699 323.683C134.443 331.526 135.483 337.387 138.819 341.266C142.156 345.144 147.356 347.083 154.42 347.083C159.056 347.083 163.227 346.108 166.932 344.158C170.637 342.208 173.508 339.326 175.545 335.513L200.83 337.203C197.277 346.476 191.113 353.886 182.337 359.433C173.562 364.98 162.956 367.753 150.52 367.753L150.52 367.753ZM138.949 305.808L180.485 305.808C181.482 299.871 180.442 294.974 177.365 291.118C174.288 287.261 169.76 285.333 163.78 285.333C159.793 285.333 156.066 286.275 152.6 288.16C149.133 290.045 146.186 292.548 143.76 295.668C141.333 298.788 139.729 302.168 138.949 305.808L138.949 305.808ZM0 365.804L22.1002 232.683L49.7906 232.683L41.6005 282.733L42.3805 282.733C44.0272 280.003 46.248 277.251 49.043 274.478C51.8381 271.705 55.2831 269.376 59.3782 267.491C63.4732 265.605 68.2941 264.663 73.8408 264.663C81.1642 264.663 87.5668 266.559 93.0485 270.351C98.5303 274.142 102.484 279.841 104.911 287.446C107.338 295.051 107.598 304.573 105.691 316.014C103.871 327.15 100.524 336.543 95.6486 344.191C90.7735 351.84 84.9451 357.625 78.1634 361.547C71.3816 365.468 64.199 367.429 56.6156 367.429C51.2422 367.429 46.8438 366.541 43.4205 364.764C39.9971 362.987 37.3212 360.745 35.3929 358.037C33.4645 355.328 32.0887 352.587 31.2653 349.814L29.9003 349.814L27.3003 365.804L0 365.804ZM35.426 315.883C33.996 324.767 34.6569 331.906 37.4086 337.301C40.1603 342.696 44.8728 345.393 51.5462 345.393C58.393 345.393 64.0589 342.653 68.5439 337.171C73.029 331.689 75.9865 324.593 77.4165 315.883C78.8032 307.216 78.164 300.185 75.499 294.79C72.8339 289.395 68.0781 286.698 61.2313 286.698C54.5579 286.698 48.9462 289.33 44.3961 294.595C39.8461 299.86 36.856 306.956 35.426 315.883L35.426 315.883Z" id="beamport" fill="#000000" fill-rule="evenodd" stroke="none" />
  </g>
</svg>